<svg width="102" height="101" viewBox="0 0 102 101" fill="none" xmlns="http://www.w3.org/2000/svg">
<path d="M57.12 0.000387397C57.0316 0.10882 56.9455 0.219511 56.8548 0.332461C55.8915 1.56588 54.9667 2.76767 54.7536 4.34897C54.8737 5.09444 54.9712 5.36553 55.5333 5.8738C57.0157 6.62605 58.4188 6.71867 60.0667 6.5515C60.7716 6.30301 61.2771 5.97546 61.8891 5.5598C62.0591 5.44459 62.2291 5.32938 62.4036 5.20965C62.6643 5.03571 62.6643 5.03571 62.9272 4.85499C64.6521 3.77744 66.1912 3.35049 68.2131 3.36179C68.4511 3.35953 68.4511 3.35953 68.6959 3.35727C69.5504 3.35953 70.3437 3.41149 71.1733 3.6148C70.4797 4.36253 69.7159 4.93631 68.884 5.5214C68.1247 6.14262 67.8005 6.57409 67.6736 7.5545C67.7937 8.53039 67.9569 8.82181 68.68 9.48821C70.1873 10.6426 71.5723 10.8481 73.44 10.6177C74.2175 10.4415 74.9564 10.2021 75.7067 9.94001C78.3405 9.14032 81.0333 9.91516 83.4133 11.0695C83.4133 11.2186 83.4133 11.3677 83.4133 11.5213C83.266 11.5597 83.1187 11.5981 82.9645 11.6388C81.5433 12.0296 80.4259 12.4656 79.3605 13.5273C78.9843 14.2366 78.9548 14.5619 79.1067 15.3616C80.0065 16.8435 81.0651 17.9708 82.7333 18.5242C83.0665 18.5468 83.402 18.5581 83.7375 18.5649C87.1171 18.644 90.0569 18.9105 92.7067 21.235C92.9424 21.5287 93.1713 21.8292 93.3867 22.1386C93.1781 22.1454 92.9696 22.1499 92.7565 22.1567C90.2632 22.2403 90.2632 22.2403 88.1733 23.494C87.9467 24.9353 88.2685 25.9044 89.0369 27.1198C89.3067 27.5603 89.3067 27.5603 89.5333 28.238C90.3221 28.7553 91.2696 28.9495 92.1672 29.2116C95.3519 30.1807 97.8769 31.5406 99.5067 34.5632C99.5067 34.7123 99.5067 34.8614 99.5067 35.015C99.348 34.9833 99.1893 34.9495 99.0261 34.9156C96.7481 34.4096 96.7481 34.4096 94.5336 34.8749C94.044 35.2047 94.044 35.2047 93.84 35.6927C93.6133 37.6196 94.0349 39.2913 95.2272 40.8319C95.9843 41.4215 96.7844 41.8846 97.6117 42.3658C98.2804 42.7769 98.7609 43.2378 99.28 43.8251C99.4069 43.9606 99.5361 44.0939 99.6676 44.234C101.105 45.7837 101.848 47.1323 102 49.2467C101.458 49.0389 100.928 48.8265 100.409 48.5645C99.2301 47.9839 98.1081 47.5976 96.7867 47.8913C96.1792 48.3476 95.9911 48.7317 95.88 49.4726C95.744 51.273 95.6329 52.9605 96.7867 54.4424C97.1675 54.84 97.5641 55.2173 97.9653 55.5945C100.003 57.7361 100.502 60.2368 100.438 63.0922C100.425 63.3949 100.425 63.3949 100.413 63.7043C100.314 63.6185 100.216 63.5349 100.114 63.4468C98.3915 61.7706 98.3915 61.7706 96.2631 60.9077C95.4131 60.9235 95.4131 60.9235 94.8033 61.4453C93.8196 62.7533 93.4501 64.0522 93.4841 65.69C93.7085 66.9528 94.2752 68.0665 94.8305 69.2163C95.4312 70.5401 95.4743 71.7193 95.4833 73.1492C95.4901 73.4113 95.4901 73.4113 95.4969 73.6756C95.506 74.9429 95.2521 75.8691 94.7467 77.0325C94.0463 76.1334 93.4637 75.1711 92.8699 74.1997C92.4959 73.5943 92.4959 73.5943 91.8 73.1922C90.4831 73.0318 90.4831 73.0318 89.3769 73.6575C87.89 75.4738 87.89 75.4738 87.4661 77.7237C87.4639 78.0219 87.4639 78.0219 87.4639 78.3246C87.4593 78.8465 87.4593 78.8465 87.72 79.2915C87.9285 82.235 87.9013 85.1943 85.9633 87.6227C85.4533 88.1016 85.4533 88.1016 85.2267 88.1016C85.1655 87.7786 85.1655 87.7786 85.102 87.4487C85.0453 87.1664 84.9887 86.8817 84.9297 86.5903C84.8731 86.3102 84.8187 86.0301 84.762 85.7409C84.4628 84.6227 84.1568 84.0038 83.1867 83.3577C81.8267 83.1408 81.0832 83.5723 80.0179 84.3404C78.9435 85.2169 78.2771 86.1566 78.0957 87.5301C78.0685 87.8328 78.0436 88.1377 78.0164 88.4405C77.6991 91.3229 76.5952 93.8327 74.3195 95.7325C73.8933 96.0081 73.8933 96.0081 73.44 96.0081C73.4309 95.7257 73.4241 95.4411 73.4151 95.1497C73.3992 94.777 73.3833 94.4042 73.3697 94.0315C73.3629 93.8463 73.3584 93.6588 73.3539 93.4667C73.3063 92.3756 73.3063 92.3756 72.9051 91.3727C72.2273 90.7627 71.4544 90.7221 70.5659 90.7356C69.2331 90.9321 68.1156 91.6302 67.1364 92.5202C66.6581 93.164 66.3952 93.8688 66.1005 94.6098C64.9921 97.3929 62.9771 99.2701 60.316 100.583C60.1596 100.639 60.0009 100.696 59.84 100.752C59.6904 100.677 59.5408 100.603 59.3867 100.526C59.4683 100.352 59.5499 100.176 59.6337 99.9975C60.5064 98.0706 60.5064 98.0706 60.52 96.0081C60.146 95.3824 59.8831 95.0029 59.2167 94.6956C57.4305 94.5465 55.7147 94.5172 54.2731 95.6964C53.5591 96.3583 52.9357 97.0879 52.3033 97.8266C50.8957 99.3921 49.2388 100.546 47.1467 100.978C46.4644 101.01 45.7889 101.005 45.1067 100.978C45.2155 100.811 45.3243 100.646 45.4376 100.474C45.5804 100.253 45.7232 100.034 45.8728 99.8055C46.0133 99.5886 46.1561 99.3718 46.3012 99.1459C46.9245 98.1067 47.3303 97.2348 47.1467 96.0081C45.9317 94.7634 44.5491 94.5194 42.8581 94.4901C41.2851 94.5443 40.3036 95.292 39.0592 96.173C36.8016 97.7611 34.1723 97.8244 31.5067 97.5894C31.2823 97.4403 31.0579 97.2912 30.8267 97.1376C31.0284 97.0111 31.0284 97.0111 31.2324 96.8801C33.0367 95.8297 33.0367 95.8297 34.1587 94.1693C34.3241 93.2521 34.34 92.7913 33.8164 91.9984C32.1436 90.8214 30.6521 90.0059 28.56 90.3606C28.1475 90.5029 27.7349 90.6543 27.3269 90.8124C24.9832 91.6528 22.2315 91.655 19.9195 90.7266C18.8609 90.2273 18.8609 90.2273 18.5867 89.6829C18.7861 89.6129 18.9856 89.5406 19.1919 89.4683C19.4548 89.3712 19.7177 89.274 19.9897 89.1746C20.3796 89.0323 20.3796 89.0323 20.7785 88.8877C21.6603 88.4969 22.4491 88.0813 22.8933 87.198C22.984 86.2402 23.0089 85.7771 22.44 84.9819C22.2156 84.7357 22.2156 84.7357 21.9867 84.4872C21.9867 84.3381 21.9867 84.189 21.9867 84.0354C21.8643 83.9789 21.7441 83.9224 21.6195 83.866C21.08 83.5836 21.08 83.5836 20.5315 83.1205C19.3279 82.314 17.7571 82.5648 16.3676 82.5693C13.8743 82.5354 11.6733 81.8103 9.74667 80.1951C9.43613 79.8246 9.1324 79.4496 8.84 79.0656C9.08707 79.043 9.33187 79.0204 9.58573 78.9978C9.91213 78.9639 10.2408 78.93 10.5672 78.8962C10.8097 78.8758 10.8097 78.8758 11.0591 78.8532C12.1924 78.729 12.9155 78.4421 13.8267 77.7102C14.1621 77.0393 14.1349 76.6575 14.0533 75.903C13.5093 74.4053 12.7704 73.0634 11.3333 72.2886C10.5468 72.0265 9.75573 71.8142 8.95333 71.6063C6.32627 70.8744 4.21827 69.2999 2.80613 66.9663C2.62253 66.6343 2.4412 66.2999 2.26667 65.9633C2.89227 66.0808 3.4748 66.2141 4.08 66.4152C4.56507 66.4423 5.0524 66.4558 5.53973 66.4581C5.79587 66.4603 6.052 66.4649 6.3172 66.4671C6.99947 66.4174 7.37347 66.3406 7.93333 65.9633C8.47507 64.8835 8.3028 63.3474 8.00587 62.2089C7.43467 60.806 6.59373 60.0583 5.31533 59.2902C3.0124 57.901 1.00413 56.0395 0.283333 53.3604C0.172267 52.8182 0.0770667 52.2783 0 51.7316C0.3128 51.9033 0.3128 51.9033 0.630133 52.0772C2.6928 53.2542 2.6928 53.2542 4.98667 53.3129C5.6032 52.8566 6.0384 52.4861 6.2424 51.7294C6.30587 51.1872 6.324 50.6676 6.31947 50.1232C6.3172 49.9312 6.3172 49.7392 6.31493 49.5426C6.23107 47.6519 5.40827 46.7053 4.08 45.4064C2.4888 43.3643 1.5436 41.1595 1.57307 38.5594C1.57533 38.3176 1.5776 38.0759 1.5776 37.8274C1.58213 37.6445 1.5844 37.4615 1.58667 37.274C1.7408 37.4321 1.89493 37.5902 2.0536 37.7529C3.71733 39.4652 3.71733 39.4652 5.87973 40.3101C6.596 40.2604 6.596 40.2604 7.1672 39.8018C8.228 38.3854 8.78107 36.786 8.61333 35.015C8.36853 34.3102 8.04893 33.6505 7.72027 32.9819C6.30813 30.0813 6.23333 27.2237 7.25333 24.1717C7.40293 24.1717 7.55253 24.1717 7.70667 24.1717C7.78827 24.3547 7.87214 24.5377 7.956 24.7252C8.84453 26.6657 8.84453 26.6657 10.4267 28.0121C11.152 28.1815 11.5351 28.1544 12.1856 27.7862C13.3484 26.9051 14.0556 25.7734 14.5067 24.3976C14.6359 23.3585 14.6132 22.4572 14.28 21.4609C14.0987 18.2486 14.4228 15.7682 16.32 13.1026C16.4696 13.0281 16.6192 12.9535 16.7733 12.8767C16.8119 13.071 16.8504 13.263 16.8912 13.4641C17.374 15.9987 17.374 15.9987 19.04 17.8465C20.5949 17.7878 21.4699 17.1846 22.5964 16.1658C23.5325 15.1312 23.8771 14.336 24.0267 12.9467C24.4936 9.35041 25.7199 7.05978 28.56 4.7443C28.9091 5.82184 28.7685 6.92424 28.7277 8.04019C28.7912 8.87602 28.9997 9.26005 29.4667 9.94001C29.4667 10.0891 29.4667 10.2382 29.4667 10.3918C31.3684 10.6177 32.8916 10.1456 34.4533 9.03641C35.3169 7.9295 35.8791 6.66671 36.4729 5.40393C37.6516 2.9755 39.4899 1.54329 41.9333 0.452189C42.0829 0.452189 42.2325 0.452189 42.3867 0.452189C42.2847 1.03953 42.1736 1.55232 41.9288 2.10126C41.6772 2.79026 41.6319 3.34597 41.6205 4.08015C41.616 4.31057 41.6092 4.54325 41.6024 4.78044C41.6636 5.43781 41.6636 5.43781 42.0625 5.95061C43.1959 6.72319 44.6987 6.45663 46.0133 6.3256C47.5479 5.98449 48.246 4.95439 49.1595 3.75034C50.7167 1.84825 52.87 0.544808 55.2795 0.0433085C55.896 0.00490541 56.5035 -0.00187161 57.12 0.000387397Z" fill="#DA291C"/>
<path d="M69.2954 28.0473C75.0051 32.8952 79.1486 39.6293 79.7878 47.2127C79.9306 50.4251 79.9419 53.5809 79.1078 56.7006C79.067 56.8474 79.0284 56.992 78.9899 57.1433C76.8955 64.7946 72.2148 71.0498 65.2924 75.0279C58.5831 78.7372 50.8379 79.7085 43.4304 77.6032C36.1907 75.3961 29.946 70.5889 26.2944 63.9294C25.3402 62.1267 24.5831 60.2947 23.9552 58.3542C23.9008 58.1847 23.8464 58.0153 23.7898 57.8414C23.0032 55.2977 22.8038 52.7902 22.8083 50.1359C22.8083 49.9823 22.8083 49.8287 22.8083 49.6705C22.8174 47.1111 23.0327 44.6985 23.8011 42.2429C23.8487 42.0871 23.8963 41.9312 23.9462 41.7708C25.7731 36.121 29.2592 31.1512 34.0011 27.5594C34.1688 27.4284 34.3366 27.2974 34.5111 27.1618C37.315 25.079 40.5971 23.4842 43.9744 22.5896C44.2283 22.5196 44.4822 22.4473 44.7428 22.3727C53.1454 20.3961 62.6382 22.6077 69.2954 28.0473Z" fill="#FDFDFE"/>
<path d="M57.12 0.000387397C57.0316 0.10882 56.9455 0.219511 56.8548 0.332461C55.8915 1.56588 54.9667 2.76767 54.7536 4.34897C54.8737 5.09444 54.9712 5.36553 55.5333 5.8738C57.0157 6.62605 58.4188 6.71867 60.0667 6.5515C60.7716 6.30301 61.2771 5.97546 61.8891 5.5598C62.0591 5.44459 62.2291 5.32938 62.4036 5.20965C62.6643 5.03571 62.6643 5.03571 62.9272 4.85499C64.6521 3.77744 66.1912 3.35049 68.2131 3.36179C68.4511 3.35953 68.4511 3.35953 68.6959 3.35727C69.5504 3.35953 70.3437 3.41149 71.1733 3.6148C70.4797 4.36253 69.7159 4.93631 68.884 5.5214C68.1247 6.14262 67.8005 6.57409 67.6736 7.5545C67.7937 8.53039 67.9569 8.82181 68.68 9.48821C70.1873 10.6426 71.5723 10.8481 73.44 10.6177C74.2175 10.4415 74.9564 10.2021 75.7067 9.94001C78.3405 9.14032 81.0333 9.91516 83.4133 11.0695C83.4133 11.2186 83.4133 11.3677 83.4133 11.5213C83.266 11.5597 83.1187 11.5981 82.9645 11.6388C81.5433 12.0296 80.4259 12.4656 79.3605 13.5273C78.9843 14.2366 78.9548 14.5619 79.1067 15.3616C80.0065 16.8435 81.0651 17.9708 82.7333 18.5242C83.0665 18.5468 83.402 18.5581 83.7375 18.5649C87.1171 18.644 90.0569 18.9105 92.7067 21.235C92.9424 21.5287 93.1713 21.8292 93.3867 22.1386C93.1781 22.1454 92.9696 22.1499 92.7565 22.1567C90.2632 22.2403 90.2632 22.2403 88.1733 23.494C87.9467 24.9353 88.2685 25.9044 89.0369 27.1198C89.3067 27.5603 89.3067 27.5603 89.5333 28.238C90.3221 28.7553 91.2696 28.9495 92.1672 29.2116C95.3519 30.1807 97.8769 31.5406 99.5067 34.5632C99.5067 34.7123 99.5067 34.8614 99.5067 35.015C99.348 34.9833 99.1893 34.9495 99.0261 34.9156C96.7481 34.4096 96.7481 34.4096 94.5336 34.8749C94.044 35.2047 94.044 35.2047 93.84 35.6927C93.6133 37.6196 94.0349 39.2913 95.2272 40.8319C95.9843 41.4215 96.7844 41.8846 97.6117 42.3658C98.2804 42.7769 98.7609 43.2378 99.28 43.8251C99.4069 43.9606 99.5361 44.0939 99.6676 44.234C101.105 45.7837 101.848 47.1323 102 49.2467C101.458 49.0389 100.928 48.8265 100.409 48.5645C99.2301 47.9839 98.1081 47.5976 96.7867 47.8913C96.1792 48.3476 95.9911 48.7317 95.88 49.4726C95.744 51.273 95.6329 52.9605 96.7867 54.4424C97.1675 54.84 97.5641 55.2173 97.9653 55.5945C100.003 57.7361 100.502 60.2368 100.438 63.0922C100.425 63.3949 100.425 63.3949 100.413 63.7043C100.314 63.6185 100.216 63.5349 100.114 63.4468C98.3915 61.7706 98.3915 61.7706 96.2631 60.9077C95.4131 60.9235 95.4131 60.9235 94.8033 61.4453C93.8196 62.7533 93.4501 64.0522 93.4841 65.69C93.7085 66.9528 94.2752 68.0665 94.8305 69.2163C95.4312 70.5401 95.4743 71.7193 95.4833 73.1492C95.4901 73.4113 95.4901 73.4113 95.4969 73.6756C95.506 74.9429 95.2521 75.8691 94.7467 77.0325C94.0463 76.1334 93.4637 75.1711 92.8699 74.1997C92.4959 73.5943 92.4959 73.5943 91.8 73.1922C90.4831 73.0318 90.4831 73.0318 89.3769 73.6575C87.89 75.4738 87.89 75.4738 87.4661 77.7237C87.4639 78.0219 87.4639 78.0219 87.4639 78.3246C87.4593 78.8465 87.4593 78.8465 87.72 79.2915C87.9285 82.235 87.9013 85.1943 85.9633 87.6227C85.4533 88.1016 85.4533 88.1016 85.2267 88.1016C85.1655 87.7786 85.1655 87.7786 85.102 87.4487C85.0453 87.1664 84.9887 86.8817 84.9297 86.5903C84.8731 86.3102 84.8187 86.0301 84.762 85.7409C84.4628 84.6227 84.1568 84.0038 83.1867 83.3577C81.8267 83.1408 81.0832 83.5723 80.0179 84.3404C78.9435 85.2169 78.2771 86.1566 78.0957 87.5301C78.0685 87.8328 78.0436 88.1377 78.0164 88.4405C77.6991 91.3229 76.5952 93.8327 74.3195 95.7325C73.8933 96.0081 73.8933 96.0081 73.44 96.0081C73.4309 95.7257 73.4241 95.4411 73.4151 95.1497C73.3992 94.777 73.3833 94.4042 73.3697 94.0315C73.3629 93.8463 73.3584 93.6588 73.3539 93.4667C73.3063 92.3756 73.3063 92.3756 72.9051 91.3727C72.2273 90.7627 71.4544 90.7221 70.5659 90.7356C69.2331 90.9321 68.1156 91.6302 67.1364 92.5202C66.6581 93.164 66.3952 93.8688 66.1005 94.6098C64.9921 97.3929 62.9771 99.2701 60.316 100.583C60.1596 100.639 60.0009 100.696 59.84 100.752C59.6904 100.677 59.5408 100.603 59.3867 100.526C59.4683 100.352 59.5499 100.176 59.6337 99.9975C60.5064 98.0706 60.5064 98.0706 60.52 96.0081C60.146 95.3824 59.8831 95.0029 59.2167 94.6956C57.4305 94.5465 55.7147 94.5172 54.2731 95.6964C53.5591 96.3583 52.9357 97.0879 52.3033 97.8266C50.8957 99.3921 49.2388 100.546 47.1467 100.978C46.4644 101.01 45.7889 101.005 45.1067 100.978C45.2155 100.811 45.3243 100.646 45.4376 100.474C45.5804 100.253 45.7232 100.034 45.8728 99.8055C46.0133 99.5886 46.1561 99.3718 46.3012 99.1459C46.9245 98.1067 47.3303 97.2348 47.1467 96.0081C45.9317 94.7634 44.5491 94.5194 42.8581 94.4901C41.2851 94.5443 40.3036 95.292 39.0592 96.173C36.8016 97.7611 34.1723 97.8244 31.5067 97.5894C31.2823 97.4403 31.0579 97.2912 30.8267 97.1376C31.0284 97.0111 31.0284 97.0111 31.2324 96.8801C33.0367 95.8297 33.0367 95.8297 34.1587 94.1693C34.3241 93.2521 34.34 92.7913 33.8164 91.9984C32.1436 90.8214 30.6521 90.0059 28.56 90.3606C28.1475 90.5029 27.7349 90.6543 27.3269 90.8124C24.9832 91.6528 22.2315 91.655 19.9195 90.7266C18.8609 90.2273 18.8609 90.2273 18.5867 89.6829C18.7861 89.6129 18.9856 89.5406 19.1919 89.4683C19.4548 89.3712 19.7177 89.274 19.9897 89.1746C20.3796 89.0323 20.3796 89.0323 20.7785 88.8877C21.6603 88.4969 22.4491 88.0813 22.8933 87.198C22.984 86.2402 23.0089 85.7771 22.44 84.9819C22.2156 84.7357 22.2156 84.7357 21.9867 84.4872C21.9867 84.3381 21.9867 84.189 21.9867 84.0354C21.8643 83.9789 21.7441 83.9224 21.6195 83.866C21.08 83.5836 21.08 83.5836 20.5315 83.1205C19.3279 82.314 17.7571 82.5648 16.3676 82.5693C13.8743 82.5354 11.6733 81.8103 9.74667 80.1951C9.43613 79.8246 9.1324 79.4496 8.84 79.0656C9.08707 79.043 9.33187 79.0204 9.58573 78.9978C9.91213 78.9639 10.2408 78.93 10.5672 78.8962C10.8097 78.8758 10.8097 78.8758 11.0591 78.8532C12.1924 78.729 12.9155 78.4421 13.8267 77.7102C14.1621 77.0393 14.1349 76.6575 14.0533 75.903C13.5093 74.4053 12.7704 73.0634 11.3333 72.2886C10.5468 72.0265 9.75573 71.8142 8.95333 71.6063C6.32627 70.8744 4.21827 69.2999 2.80613 66.9663C2.62253 66.6343 2.4412 66.2999 2.26667 65.9633C2.89227 66.0808 3.4748 66.2141 4.08 66.4152C4.56507 66.4423 5.0524 66.4558 5.53973 66.4581C5.79587 66.4603 6.052 66.4649 6.3172 66.4671C6.99947 66.4174 7.37347 66.3406 7.93333 65.9633C8.47507 64.8835 8.3028 63.3474 8.00587 62.2089C7.43467 60.806 6.59373 60.0583 5.31533 59.2902C3.0124 57.901 1.00413 56.0395 0.283333 53.3604C0.172267 52.8182 0.0770667 52.2783 0 51.7316C0.3128 51.9033 0.3128 51.9033 0.630133 52.0772C2.6928 53.2542 2.6928 53.2542 4.98667 53.3129C5.6032 52.8566 6.0384 52.4861 6.2424 51.7294C6.30587 51.1872 6.324 50.6676 6.31947 50.1232C6.3172 49.9312 6.3172 49.7392 6.31493 49.5426C6.23107 47.6519 5.40827 46.7053 4.08 45.4064C2.4888 43.3643 1.5436 41.1595 1.57307 38.5594C1.57533 38.3176 1.5776 38.0759 1.5776 37.8274C1.58213 37.6445 1.5844 37.4615 1.58667 37.274C1.7408 37.4321 1.89493 37.5902 2.0536 37.7529C3.71733 39.4652 3.71733 39.4652 5.87973 40.3101C6.596 40.2604 6.596 40.2604 7.1672 39.8018C8.228 38.3854 8.78107 36.786 8.61333 35.015C8.36853 34.3102 8.04893 33.6505 7.72027 32.9819C6.30813 30.0813 6.23333 27.2237 7.25333 24.1717C7.40293 24.1717 7.55253 24.1717 7.70667 24.1717C7.78827 24.3547 7.87214 24.5377 7.956 24.7252C8.84453 26.6657 8.84453 26.6657 10.4267 28.0121C11.152 28.1815 11.5351 28.1544 12.1856 27.7862C13.3484 26.9051 14.0556 25.7734 14.5067 24.3976C14.6359 23.3585 14.6132 22.4572 14.28 21.4609C14.0987 18.2486 14.4228 15.7682 16.32 13.1026C16.4696 13.0281 16.6192 12.9535 16.7733 12.8767C16.8119 13.071 16.8504 13.263 16.8912 13.4641C17.374 15.9987 17.374 15.9987 19.04 17.8465C20.5949 17.7878 21.4699 17.1846 22.5964 16.1658C23.5325 15.1312 23.8771 14.336 24.0267 12.9467C24.4936 9.35041 25.7199 7.05978 28.56 4.7443C28.9091 5.82184 28.7685 6.92424 28.7277 8.04019C28.7912 8.87602 28.9997 9.26005 29.4667 9.94001C29.4667 10.0891 29.4667 10.2382 29.4667 10.3918C31.3684 10.6177 32.8916 10.1456 34.4533 9.03641C35.3169 7.9295 35.8791 6.66671 36.4729 5.40393C37.6516 2.9755 39.4899 1.54329 41.9333 0.452189C42.0829 0.452189 42.2325 0.452189 42.3867 0.452189C42.2847 1.03953 42.1736 1.55232 41.9288 2.10126C41.6772 2.79026 41.6319 3.34597 41.6205 4.08015C41.616 4.31057 41.6092 4.54325 41.6024 4.78044C41.6636 5.43781 41.6636 5.43781 42.0625 5.95061C43.1959 6.72319 44.6987 6.45663 46.0133 6.3256C47.5479 5.98449 48.246 4.95439 49.1595 3.75034C50.7167 1.84825 52.87 0.544808 55.2795 0.0433085C55.896 0.00490541 56.5035 -0.00187161 57.12 0.000387397ZM44.2 9.71411C43.7943 9.78188 43.7943 9.78188 43.3795 9.85191C35.5889 11.2389 28.5917 15.1606 22.8933 20.5573C22.7777 20.6658 22.6644 20.7742 22.5465 20.8849C14.9555 28.0889 10.5128 38.2069 10.1275 48.6255C9.86907 60.0199 13.9287 70.5356 21.76 78.8397C26.8101 84.006 33.0956 87.7289 40.0339 89.7529C40.2129 89.8049 40.392 89.8569 40.5756 89.9111C44.0617 90.8711 47.4232 91.1603 51.0272 91.1377C51.3491 91.1355 51.3491 91.1354 51.6777 91.1354C54.9213 91.1219 58.0493 90.9683 61.2 90.1347C61.3609 90.094 61.5241 90.0534 61.6896 90.0105C68.0476 88.3524 73.678 85.0745 78.6533 80.8728C78.8188 80.735 78.9843 80.5994 79.1543 80.4571C80.2332 79.549 81.1444 78.5596 82.0533 77.4843C82.2392 77.2765 82.4273 77.0664 82.62 76.8518C87.652 71.1794 90.8639 63.937 92.0267 56.4755C92.0652 56.2428 92.1037 56.0102 92.1423 55.7707C93.3957 47.7535 91.9836 39.5533 88.4 32.3042C88.2912 32.0828 88.2912 32.0828 88.1824 31.8591C86.4121 28.2696 84.0865 25.0776 81.3733 22.1386C81.2033 21.9534 81.2033 21.9534 81.0288 21.7636C75.8903 16.2517 69.054 12.4204 61.7939 10.4618C61.6375 10.4189 61.4811 10.376 61.3179 10.3331C58.0856 9.50177 54.9168 9.15388 51.5848 9.1855C51.0091 9.19228 50.4333 9.19002 49.8553 9.19002C47.9196 9.19228 46.0949 9.28038 44.2 9.71411Z" fill="#FEDD00"/>
<path d="M43.0667 27.5603C48.4523 27.5603 53.8379 27.5603 59.3867 27.5603C59.7811 27.9533 59.6405 28.4661 59.6428 28.9925C59.6428 29.1664 59.6405 29.3404 59.6405 29.5211C59.6405 29.7041 59.6405 29.887 59.6405 30.0768C59.6405 30.698 59.6405 31.317 59.6383 31.9382C59.6383 32.381 59.6383 32.8237 59.6383 33.2665C59.6383 34.4728 59.6383 35.6791 59.636 36.8877C59.636 38.146 59.6337 39.4042 59.6337 40.6647C59.6337 43.0503 59.6315 45.438 59.6292 47.8235C59.6269 50.5411 59.6269 53.2564 59.6247 55.974C59.6224 61.5628 59.6179 67.1516 59.6133 72.7404C54.1529 72.7404 48.6925 72.7404 43.0667 72.7404C43.0667 57.8309 43.0667 42.9215 43.0667 27.5603Z" fill="#2B2B75"/>
<path d="M43.52 28.238C48.6812 28.238 53.8424 28.238 59.16 28.238C58.3939 30.7793 58.3939 30.7793 58.0471 31.7869C57.9677 32.0128 57.8907 32.2409 57.8091 32.4736C57.7275 32.7131 57.6436 32.9502 57.5597 33.1965C57.4713 33.4517 57.3829 33.707 57.2923 33.9691C57.1041 34.509 56.9183 35.0511 56.7301 35.591C56.4377 36.4314 56.1476 37.274 55.8552 38.1143C55.0369 40.4818 54.2141 42.8492 53.3279 45.1918C53.2667 45.3522 53.2055 45.5126 53.1443 45.6775C52.8768 46.38 52.6071 47.0803 52.3283 47.7806C51.408 50.1752 51.9951 51.63 52.8836 53.9477C54.2005 57.4492 55.4291 60.9777 56.6531 64.5108C56.8072 64.9604 56.9636 65.4099 57.12 65.8594C57.4169 66.7133 57.7116 67.5673 58.0063 68.4212C58.0969 68.6809 58.1876 68.9385 58.2805 69.2073C58.3621 69.4467 58.446 69.6885 58.5321 69.9347C58.6024 70.1448 58.6749 70.3549 58.7497 70.5717C58.9333 71.1591 58.9333 71.1591 59.16 72.2886C53.9988 72.2886 48.8376 72.2886 43.52 72.2886C43.6628 71.4279 43.7784 70.7524 44.0504 69.955C44.1139 69.772 44.1751 69.5913 44.2385 69.4038C44.3065 69.2073 44.3723 69.013 44.4425 68.812C44.5491 68.5002 44.5491 68.5002 44.6579 68.1817C44.812 67.7322 44.9661 67.2826 45.1203 66.8353C45.3628 66.126 45.6053 65.4189 45.8479 64.7096C46.6661 62.3218 47.5025 59.9431 48.3775 57.5757C48.4568 57.3588 48.5361 57.1419 48.62 56.9206C48.9963 55.8927 49.3793 54.8649 49.7669 53.8415C49.9052 53.4711 50.0435 53.1006 50.1795 52.7278C50.2429 52.5652 50.3064 52.4025 50.3721 52.2331C51.0589 50.3423 50.5943 48.7113 49.9075 46.8861C49.844 46.7076 49.7783 46.5269 49.7103 46.3416C49.5697 45.9531 49.4269 45.5668 49.2841 45.1782C48.9759 44.3514 48.6744 43.5201 48.3729 42.6888C48.2143 42.2506 48.0556 41.8101 47.8947 41.3718C47.0333 39.0066 46.1969 36.6324 45.3651 34.256C45.1225 33.567 44.88 32.878 44.6375 32.189C44.4901 31.7665 44.3405 31.3441 44.1932 30.9217C44.1252 30.7274 44.0572 30.5331 43.9869 30.3343C43.9235 30.1559 43.8623 29.9797 43.7988 29.7967C43.7444 29.6408 43.69 29.4872 43.6356 29.3268C43.52 28.9157 43.52 28.9157 43.52 28.238Z" fill="#FCFBF8"/>
<path d="M38.9867 25.3013C47.0651 25.3013 55.1435 25.3013 63.4667 25.3013C63.4667 26.1958 63.4667 27.0904 63.4667 28.0121C63.0179 28.0121 62.5691 28.0121 62.1067 28.0121C62.1067 42.6233 62.1067 57.2346 62.1067 72.2886C62.5555 72.2886 63.0043 72.2886 63.4667 72.2886C63.4667 73.1831 63.4667 74.0777 63.4667 74.9994C55.3883 74.9994 47.3099 74.9994 38.9867 74.9994C38.9867 74.1048 38.9867 73.2102 38.9867 72.2886C39.4355 72.2886 39.8843 72.2886 40.3467 72.2886C40.3467 57.7519 40.3467 43.2152 40.3467 28.238C39.8979 28.238 39.4491 28.238 38.9867 28.238C38.9867 27.2688 38.9867 26.2997 38.9867 25.3013ZM43.0667 27.5603C43.0667 42.4697 43.0667 57.3791 43.0667 72.7404C48.5271 72.7404 53.9875 72.7404 59.6133 72.7404C59.6179 66.8828 59.6224 61.0252 59.6247 55.1676C59.6269 52.4477 59.6269 49.7301 59.6315 47.0103C59.6337 44.6406 59.6337 42.2709 59.6337 39.9012C59.636 38.6452 59.636 37.3915 59.6383 36.1354C59.6383 34.9562 59.6383 33.7748 59.6383 32.5956C59.6383 32.1596 59.6405 31.7259 59.6405 31.2921C59.6405 30.7003 59.6405 30.1107 59.6405 29.5211C59.6405 29.3449 59.6428 29.1709 59.6428 28.9925C59.7108 28.2109 59.7108 28.2109 59.3867 27.5603C54.0011 27.5603 48.6155 27.5603 43.0667 27.5603Z" fill="#FEDD00"/>
<path d="M50.9433 9.17759C51.238 9.17759 51.238 9.17759 51.5372 9.17759C54.6856 9.18437 57.6821 9.40123 60.7466 10.167C60.9325 10.21 61.1184 10.2551 61.311 10.3003C63.4689 10.8267 65.5338 11.4795 67.5466 12.426C67.6826 12.4893 67.8186 12.5525 67.9592 12.6181C72.5832 14.8048 76.5385 17.493 80.24 21.0103C80.4168 21.1729 80.5936 21.3378 80.7749 21.5072C88.162 28.5666 92.3372 39.0304 92.5706 49.1326C92.6114 53.5964 92.1445 58.1122 90.6666 62.3501C90.6122 62.5105 90.5578 62.6708 90.5012 62.8358C88.307 69.2536 84.9002 74.7678 80.0133 79.5185C79.875 79.6631 79.7368 79.8077 79.5962 79.9568C75.9673 83.7157 71.3909 86.2481 66.64 88.3286C66.2637 88.4935 66.2637 88.4935 65.8806 88.6652C63.657 89.5846 61.2906 90.1155 58.9333 90.5876C58.7225 90.6283 58.5117 90.6712 58.2941 90.7164C55.9662 91.1321 53.6406 91.1388 51.2833 91.1366C50.9592 91.1366 50.9592 91.1366 50.6282 91.1366C47.1534 91.1298 43.9257 90.8903 40.5733 89.9099C40.3648 89.8489 40.1562 89.7902 39.9432 89.7292C31.8398 87.3708 24.1468 82.4439 19.04 75.6782C18.8405 75.4229 18.641 75.1677 18.4416 74.9124C11.696 66.1633 9.11425 55.1529 10.4561 44.2622C11.4376 37.3384 14.3434 30.8347 18.5866 25.3024C18.7385 25.0991 18.8904 24.898 19.0468 24.6879C21.4086 21.6767 24.2533 18.8687 27.4266 16.7182C27.6624 16.5578 27.6624 16.5578 27.9026 16.3929C32.887 13.0495 38.2545 10.7069 44.2 9.71523C44.4493 9.65876 44.4493 9.65876 44.7009 9.60002C46.7704 9.15726 48.8376 9.17307 50.9433 9.17759ZM26.9733 18.0736C26.7738 18.2204 26.5744 18.3695 26.3704 18.5231C18.0177 24.9839 12.6298 34.5598 11.195 44.9738C11.0477 46.4444 11.0386 47.9082 11.0477 49.3856C11.05 49.9097 11.0477 50.4316 11.0454 50.9556C11.0341 61.7492 15.7102 71.612 23.2514 79.2158C30.9717 86.8174 41.6046 90.5041 52.326 90.4566C58.2012 90.3279 63.8746 88.8708 69.1333 86.2955C69.3532 86.1894 69.3532 86.1894 69.5776 86.0809C72.8914 84.4748 75.8789 82.3694 78.5354 79.828C79.1066 79.2926 79.1066 79.2926 79.705 78.816C80.5256 78.1608 81.1557 77.3838 81.8266 76.5818C81.9264 76.4621 82.0284 76.3423 82.1304 76.2204C83.8372 74.1963 85.315 72.127 86.5866 69.8048C86.7045 69.5902 86.7045 69.5902 86.8246 69.3733C89.9549 63.6038 91.6798 57.1815 91.6436 50.6168C91.6436 50.3728 91.6436 50.3728 91.6413 50.1221C91.6096 43.8127 90.3176 37.9731 87.4933 32.3053C87.3845 32.0816 87.3845 32.0816 87.2734 31.8535C82.7174 22.6209 74.2764 15.5728 64.609 12.1279C51.9497 7.88996 37.5926 9.83044 26.9733 18.0736Z" fill="#38316D"/>
<path d="M70.1772 27.8347C70.7462 28.3362 71.3015 28.8467 71.8523 29.3686C72.0427 29.5402 72.2308 29.7142 72.4258 29.8949C73.9059 31.3023 75.0732 32.8474 76.159 34.5643C76.3176 34.8082 76.474 35.0522 76.635 35.303C78.9719 39.1455 80.5291 43.8307 80.6923 48.3442C80.7104 48.726 80.7104 48.726 80.7286 49.1145C80.928 57.3825 77.8703 64.774 72.2308 70.7716C68.8376 74.2437 64.4358 76.8393 59.7982 78.2467C59.6191 78.3009 59.4423 78.3551 59.261 78.4093C56.6022 79.1683 53.9547 79.3807 51.1984 79.3762C50.9672 79.3762 50.9672 79.3762 50.7338 79.3762C48.1543 79.3649 45.7584 79.1525 43.2923 78.389C43.0316 78.3077 43.0316 78.3077 42.7642 78.2263C39.0718 77.0652 35.5335 75.3325 32.639 72.7415C32.4214 72.5517 32.2038 72.3642 31.9794 72.1722C27.2216 68.0134 24.2274 62.768 22.6656 56.7025C22.6135 56.4992 22.5614 56.2959 22.5047 56.0881C20.8387 49.2365 22.3506 41.4836 25.8843 35.4566C27.3327 33.0959 29.0644 31.0718 31.0523 29.1427C31.1543 29.0297 31.2563 28.919 31.3628 28.8038C41.3928 18.0871 59.4854 18.7761 70.1772 27.8347ZM43.2923 22.8174C43.1382 22.8626 42.984 22.9101 42.8254 22.9598C39.142 24.1299 35.8146 25.9823 32.8656 28.465C32.6526 28.6412 32.4395 28.8151 32.2196 28.9981C27.7611 32.8316 24.6626 38.3594 23.3456 44.0521C23.3071 44.2238 23.2663 44.3977 23.2255 44.5762C22.8492 46.3789 22.8175 48.1454 22.822 49.982C22.8198 50.2757 22.8152 50.5693 22.8107 50.872C22.8107 53.7884 23.3434 56.5105 24.2818 59.271C24.3498 59.4698 24.4178 59.6709 24.4858 59.8764C26.9632 66.8997 32.2967 72.633 38.9834 75.9041C45.8423 79.1006 53.6374 79.6224 60.7978 77.0923C67.8335 74.4651 73.9331 69.353 77.0928 62.4765C77.9995 60.3892 78.8699 58.2567 79.3323 56.0248C79.3799 55.8283 79.4252 55.6318 79.4728 55.4284C80.2231 51.6107 80.0894 47.3548 79.1056 43.6003C79.0512 43.3699 79.0512 43.3699 78.9923 43.1349C77.1427 35.6915 72.1492 29.4521 65.6258 25.4944C63.3115 24.1502 60.8182 23.3235 58.2523 22.5915C57.969 22.508 57.6834 22.4266 57.391 22.3408C52.98 21.3107 47.6148 21.4756 43.2923 22.8174Z" fill="#41387A"/>
<path d="M38.9867 25.3013C47.0651 25.3013 55.1435 25.3013 63.4667 25.3013C63.4667 26.1958 63.4667 27.0904 63.4667 28.0121C63.0179 28.0121 62.5691 28.0121 62.1067 28.0121C62.1067 42.6233 62.1067 57.2346 62.1067 72.2886C62.5555 72.2886 63.0043 72.2886 63.4667 72.2886C63.4667 73.1831 63.4667 74.0777 63.4667 74.9994C55.3883 74.9994 47.3099 74.9994 38.9867 74.9994C38.9867 74.1048 38.9867 73.2102 38.9867 72.2886C39.4355 72.2886 39.8843 72.2886 40.3467 72.2886C40.3467 57.7519 40.3467 43.2152 40.3467 28.238C39.8979 28.238 39.4491 28.238 38.9867 28.238C38.9867 27.2688 38.9867 26.2997 38.9867 25.3013ZM39.6667 25.979C39.6667 26.5008 39.6667 27.0226 39.6667 27.5603C40.1155 27.5603 40.5643 27.5603 41.0267 27.5603C41.0267 42.4697 41.0267 57.3791 41.0267 72.7404C40.5031 72.7404 39.9795 72.7404 39.44 72.7404C39.44 73.3368 39.44 73.9331 39.44 74.5476C47.2192 74.5476 54.9984 74.5476 63.0133 74.5476C63.0133 73.9512 63.0133 73.3548 63.0133 72.7404C62.5645 72.7404 62.1157 72.7404 61.6533 72.7404C61.6533 57.8309 61.6533 42.9215 61.6533 27.5603C62.1021 27.5603 62.5509 27.5603 63.0133 27.5603C63.0133 27.0384 63.0133 26.5166 63.0133 25.979C55.3089 25.979 47.6045 25.979 39.6667 25.979Z" fill="#282873"/>
<path d="M46.92 35.9186C49.7624 35.9186 52.6048 35.9186 55.5333 35.9186C55.3769 36.8493 55.2455 37.5293 54.9281 38.3809C54.8511 38.5887 54.774 38.7966 54.6924 39.0112C54.6108 39.2325 54.5269 39.4517 54.4408 39.6798C54.3569 39.908 54.2708 40.1361 54.1824 40.3733C53.9127 41.1007 53.6384 41.8281 53.3664 42.5555C53.1805 43.048 52.9969 43.5427 52.8111 44.0374C52.36 45.2483 51.9067 46.4568 51.4533 47.6654C51.3037 47.6654 51.1541 47.6654 51 47.6654C50.456 46.1022 49.9097 44.5367 49.3657 42.9735C49.1799 42.4403 48.9963 41.9095 48.8104 41.3763C48.5429 40.6128 48.2777 39.847 48.0125 39.0834C47.9287 38.8463 47.8448 38.6068 47.7609 38.3606C47.6816 38.1392 47.6045 37.9178 47.5252 37.6896C47.4572 37.4931 47.3892 37.2988 47.3212 37.0978C47.1852 36.7047 47.0515 36.3116 46.92 35.9186Z" fill="#FEDD00"/>
<path d="M51.5908 66.8932C52.1643 67.1055 52.604 67.3518 53.1072 67.7019C53.2863 67.8262 53.4654 67.9504 53.649 68.0769C53.8371 68.2079 54.023 68.3412 54.2156 68.4768C54.406 68.61 54.5987 68.7433 54.7959 68.8789C55.1744 69.1432 55.5507 69.4075 55.9292 69.6718C56.3599 69.9722 56.7906 70.2727 57.2258 70.5686C58.3523 71.3389 58.3523 71.3389 58.7059 71.61C58.7059 71.6846 58.7059 71.7591 58.7059 71.8359C53.8439 71.8359 48.9819 71.8359 43.9726 71.8359C45.1172 70.6974 46.3072 69.8457 47.6468 68.9692C48.0548 68.7027 48.4583 68.4293 48.8618 68.156C49.1202 67.9866 49.3808 67.8149 49.6392 67.6454C49.8727 67.4896 50.1084 67.336 50.3487 67.1756C50.9992 66.8661 50.9992 66.8661 51.5908 66.8932Z" fill="#FEDD00"/>
<path d="M38.9867 25.3013C47.0651 25.3013 55.1435 25.3013 63.4667 25.3013C63.3171 25.3758 63.1675 25.4503 63.0133 25.5272C63.0133 25.6762 63.0133 25.8253 63.0133 25.979C55.3089 25.979 47.6045 25.979 39.6667 25.979C39.6667 26.5008 39.6667 27.0226 39.6667 27.5603C40.1155 27.5603 40.5643 27.5603 41.0267 27.5603C41.0267 42.4697 41.0267 57.3791 41.0267 72.7404C40.8023 72.5913 40.5779 72.4422 40.3467 72.2886C40.2809 71.6945 40.2583 71.1546 40.2651 70.5627C40.2651 70.382 40.2628 70.2013 40.2628 70.016C40.2628 69.4083 40.2651 68.8007 40.2696 68.193C40.2696 67.7593 40.2696 67.3255 40.2696 66.8918C40.2696 65.7104 40.2719 64.5289 40.2787 63.3474C40.2809 62.114 40.2832 60.8806 40.2832 59.6472C40.2855 57.3114 40.29 54.9733 40.2968 52.6375C40.3059 49.9764 40.3081 47.3175 40.3127 44.6564C40.3195 39.1828 40.3308 33.7115 40.3467 28.238C39.8979 28.238 39.4491 28.238 38.9867 28.238C38.9867 27.2688 38.9867 26.2997 38.9867 25.3013Z" fill="#615E85"/>
<path d="M67.5467 77.9361C68.4601 78.3405 69.1696 78.8397 69.8133 79.6032C70.2077 80.6356 70.1579 81.4488 69.7861 82.4812C69.1515 83.4503 68.442 84.1145 67.32 84.4872C66.3839 84.5753 65.8557 84.5505 65.0103 84.1212C64.0197 83.2854 63.4259 82.5467 63.3103 81.2388C63.3579 80.1296 63.8724 79.54 64.6181 78.7561C65.5611 77.9587 66.3091 77.7915 67.5467 77.9361Z" fill="#FEDD00"/>
<path d="M65.96 15.5875C66.7125 16.0597 67.3721 16.595 67.7733 17.3947C67.8572 18.6598 67.8209 19.4708 67.0933 20.5573C66.3657 21.2735 65.6948 21.8653 64.6566 21.9828C63.5573 21.8789 62.9362 21.348 62.1338 20.6274C61.7236 19.7848 61.7417 18.9896 61.88 18.0724C62.1928 17.1711 62.6937 16.5725 63.41 15.9399C64.2894 15.5198 65.0148 15.3413 65.96 15.5875Z" fill="#FEDD00"/>
<path d="M78.4267 25.0753C79.2767 25.5317 79.7051 25.8547 80.24 26.6567C80.4418 27.6596 80.4531 28.5542 79.925 29.4488C79.0115 30.5308 78.2748 31.0798 76.8536 31.2605C75.7407 31.1227 75.072 30.6054 74.3739 29.7492C74.0407 28.9518 74.0135 28.4187 74.12 27.5603C75.0358 25.7327 76.3935 24.7862 78.4267 25.0753Z" fill="#FEDD00"/>
<path d="M37.4 78.6138C37.944 78.8126 38.488 79.0159 39.0297 79.2215C39.1816 79.2757 39.3335 79.3321 39.4921 79.3886C40.5235 79.7839 41.2239 80.2199 41.9333 81.0987C41.9696 82.122 41.8155 82.5467 41.1672 83.3441C40.5733 83.8095 40.5733 83.8095 39.8933 83.8095C39.9681 84.0512 40.0429 84.2929 40.12 84.5437C40.3467 85.3908 40.3467 85.3908 40.3467 86.2944C38.8167 85.9284 38.8167 85.9284 38.3067 85.1649C38.1843 84.564 38.1412 83.9699 38.08 83.3577C37.7808 83.3577 37.4816 83.3577 37.1733 83.3577C37.1461 83.5768 37.1167 83.7959 37.0872 84.0218C37.0419 84.25 36.9943 84.4782 36.9467 84.7131C36.4933 84.939 36.4933 84.939 35.7861 84.7267C35.462 84.6092 35.462 84.6092 35.1333 84.4872C35.5096 83.0911 35.9833 81.747 36.5205 80.4074C36.5817 80.2561 36.6429 80.1047 36.7041 79.9511C37.1439 78.8691 37.1439 78.8691 37.4 78.6138Z" fill="#FEDD00"/>
<path d="M72.9867 73.1922C73.9523 73.5401 74.4396 74.2629 75.0267 75.0558C75.1241 75.1824 75.2193 75.3089 75.3191 75.4399C75.9333 76.2531 76.5068 77.0844 77.0667 77.9361C76.7267 78.4014 76.7267 78.4014 76.16 78.8397C74.7365 78.8148 73.4264 78.3743 72.08 77.9361C72.1979 78.0716 72.3135 78.2094 72.4359 78.3495C72.5855 78.5302 72.7328 78.7109 72.8869 78.8962C73.0365 79.0746 73.1884 79.2531 73.3425 79.4361C73.6667 79.9692 73.6667 79.9692 73.6304 80.4594C73.44 80.8728 73.44 80.8728 72.9867 81.3246C72.4404 81.2726 72.1593 81.1732 71.7581 80.796C71.6629 80.6717 71.5677 80.5452 71.4703 80.4165C71.3093 80.2086 71.3093 80.2086 71.1461 79.9986C71.0396 79.854 70.9308 79.7094 70.8197 79.5603C70.7109 79.418 70.5999 79.2757 70.4888 79.1288C70.1851 78.7335 69.8859 78.3359 69.5867 77.9361C69.4484 77.7531 69.3124 77.5701 69.1696 77.3826C69.0404 77.2087 69.0404 77.2087 68.9067 77.0325C69.3328 76.156 69.3328 76.156 69.5867 75.903C71.0736 75.7945 72.2659 76.0995 73.6667 76.5807C73.5692 76.461 73.4695 76.3412 73.3697 76.217C73.2428 76.0566 73.1159 75.8985 72.9867 75.7336C72.8597 75.5754 72.7351 75.4195 72.6036 75.2569C72.3067 74.7735 72.3067 74.7735 72.3067 73.8699C72.6467 73.4745 72.6467 73.4745 72.9867 73.1922Z" fill="#FEDD00"/>
<path d="M23.8 66.6411C24.2397 66.7676 24.2397 66.7676 24.7067 67.0929C25.2393 68.6154 24.582 69.9392 24.0267 71.385C24.1649 71.2878 24.3055 71.1884 24.4483 71.089C24.6319 70.9625 24.8155 70.836 25.0036 70.7073C25.1849 70.5808 25.3663 70.4565 25.5544 70.3255C26.0667 70.0296 26.0667 70.0296 26.7467 70.0296C27.1297 70.5943 27.1297 70.5943 27.4267 71.1591C25.9692 72.3812 24.5072 73.5355 22.8933 74.5476C22.0139 74.1229 22.0139 74.1229 21.76 73.8699C21.7736 72.4377 22.1657 71.132 22.6667 69.8037C22.5284 69.8985 22.3879 69.9934 22.2451 70.0928C22.0615 70.2171 21.8779 70.3391 21.6897 70.4678C21.5084 70.5898 21.3271 70.714 21.1389 70.8406C20.6267 71.1591 20.6267 71.1591 19.9467 71.385C19.2667 70.5672 19.2667 70.5672 19.2667 69.8037C19.7585 69.4016 20.2436 69.0424 20.7672 68.6877C20.978 68.5431 20.978 68.5431 21.1933 68.394C22.0547 67.7977 22.9251 67.2194 23.8 66.6411Z" fill="#FEDD00"/>
<path d="M42.84 80.8728C44.1411 80.8321 44.1411 80.8321 44.6669 81.1981C46.24 83.2696 46.24 83.2696 46.24 84.4872C46.3896 84.4872 46.5392 84.4872 46.6933 84.4872C46.6888 84.2116 46.6843 83.9383 46.6797 83.6536C46.6775 82.924 46.7409 82.2621 46.92 81.5505C47.5184 81.625 48.1168 81.6996 48.7333 81.7764C48.6359 83.1589 48.4885 84.4895 48.1621 85.8381C48.0193 86.439 47.9196 87.0421 47.8267 87.6498C47.3031 87.6498 46.7795 87.6498 46.24 87.6498C45.6416 86.5316 45.0432 85.4134 44.4267 84.2613C44.3519 84.2613 44.2771 84.2613 44.2 84.2613C44.0504 85.1559 43.9008 86.0504 43.7467 86.9721C43.2231 86.8976 42.6995 86.823 42.16 86.7462C42.2824 84.7673 42.5091 82.8268 42.84 80.8728Z" fill="#FEDD00"/>
<path d="M32.1867 75.6771C33.1636 75.842 33.9093 76.3751 34.7231 76.906C34.8681 76.9986 35.0132 77.089 35.1628 77.1838C36.2372 77.8773 36.2372 77.8773 36.4933 78.3879C36.2689 78.6861 36.0445 78.9843 35.8133 79.2915C34.8795 78.9639 34.1405 78.4805 33.32 77.9361C33.1704 77.9361 33.0208 77.9361 32.8667 77.9361C32.8667 78.1597 32.8667 78.3834 32.8667 78.6138C33.32 78.9978 33.32 78.9978 33.8867 79.3344C34.17 79.5129 34.17 79.5129 34.4601 79.6958C34.6075 79.7862 34.7548 79.8766 34.9067 79.9692C34.6823 80.5294 34.6823 80.5294 34.4533 81.0987C33.4764 80.744 32.6264 80.2674 31.7333 79.7433C31.6585 79.9669 31.5837 80.1906 31.5067 80.421C32.3295 80.9428 33.1523 81.4647 34 82.0023C33.5467 83.1318 33.5467 83.1318 33.0933 83.3577C32.6876 83.1544 32.6876 83.1544 32.2071 82.8359C32.0348 82.7229 31.8603 82.61 31.6835 82.4948C31.5044 82.3728 31.3231 82.253 31.1395 82.1288C30.9559 82.0091 30.7745 81.8893 30.5887 81.7674C30.1376 81.4714 29.6888 81.1732 29.24 80.8728C29.3851 80.1522 29.6389 79.6236 30.0265 79.0001C30.1376 78.8194 30.2487 78.6409 30.362 78.4557C30.4776 78.2704 30.5932 78.0852 30.7133 77.8932C30.8879 77.6108 30.8879 77.6108 31.0647 77.3239C31.9237 75.9391 31.9237 75.9391 32.1867 75.6771Z" fill="#FEDD00"/>
<path d="M51 81.7764C51.5984 81.7764 52.1968 81.7764 52.8133 81.7764C55.5333 87.1393 55.5333 87.1393 55.5333 87.8757C54.9349 87.8757 54.3365 87.8757 53.72 87.8757C53.6724 87.7311 53.6225 87.5843 53.5727 87.4352C53.3007 86.9089 53.3007 86.9089 52.6773 86.8343C52.3373 86.8185 52.3373 86.8185 51.9928 86.8027C51.7639 86.7891 51.5372 86.7778 51.3037 86.7643C51.0408 86.7552 51.0408 86.7552 50.7733 86.7462C50.6985 87.1189 50.6237 87.4917 50.5467 87.8757C49.9483 87.8757 49.3499 87.8757 48.7333 87.8757C49.2796 85.7613 50.1477 83.7801 51 81.7764Z" fill="#FEDD00"/>
<path d="M23.5733 25.3013C24.9809 25.6017 26.3658 25.9451 27.753 26.3314C27.9344 26.3811 28.1157 26.4308 28.3038 26.4827C29.6344 26.8532 29.6344 26.8532 30.1466 27.1085C29.886 27.6664 29.682 28.0234 29.24 28.4639C29.0292 28.4458 28.8184 28.4277 28.603 28.4074C27.821 28.3961 27.821 28.3961 27.2136 29.0557C26.6582 29.9638 26.7806 30.1762 26.9733 31.1747C26.563 31.8253 26.563 31.8253 26.0666 32.3042C25.917 32.3042 25.7674 32.3042 25.6133 32.3042C25.1509 31.4209 24.6953 30.5354 24.2397 29.6498C24.1082 29.3991 23.9768 29.1483 23.8408 28.8886C23.7161 28.6468 23.5937 28.4051 23.4668 28.1566C23.3512 27.9353 23.2356 27.7116 23.1177 27.4835C22.8752 26.8329 22.8502 26.607 23.12 25.979C23.2696 25.7553 23.4192 25.5317 23.5733 25.3013Z" fill="#FEDD00"/>
<path d="M77.1657 70.3568C78.1903 70.576 79.1604 70.9238 80.1419 71.2853C80.3481 71.3598 80.5544 71.4344 80.7675 71.5112C81.2729 71.6942 81.7761 71.8771 82.2793 72.0624C81.8759 72.7401 81.8759 72.7401 81.3727 73.4178C80.8445 73.4178 80.3164 73.4178 79.786 73.4178C79.072 73.9803 79.072 73.9803 78.6527 74.7732C78.7275 75.225 78.8023 75.6768 78.8793 76.1286C78.3195 76.734 78.3195 76.734 77.746 77.2581C77.2904 76.3748 76.8371 75.4893 76.386 74.6038C76.2568 74.353 76.1276 74.1023 75.9939 73.8425C75.8715 73.6008 75.7491 73.3591 75.6221 73.1106C75.5088 72.8892 75.3932 72.6655 75.2753 72.4374C75.026 71.8365 75.026 71.8365 75.026 70.9329C75.6471 70.0632 76.1933 70.2123 77.1657 70.3568Z" fill="#FEDD00"/>
<path d="M48.5067 12.8767C50.0775 12.8767 51.6483 12.8767 53.2667 12.8767C53.2667 13.324 53.2667 13.7713 53.2667 14.2321C52.2195 14.2321 51.1723 14.2321 50.0933 14.2321C50.0933 14.5303 50.0933 14.8285 50.0933 15.1357C51.0657 15.1357 52.0381 15.1357 53.04 15.1357C53.04 15.583 53.04 16.0303 53.04 16.4911C52.0676 16.4911 51.0952 16.4911 50.0933 16.4911C50.0933 16.8639 50.0933 17.2366 50.0933 17.6206C51.2153 17.6206 52.3373 17.6206 53.4933 17.6206C53.4933 18.0679 53.4933 18.5152 53.4933 18.976C51.8477 18.976 50.2021 18.976 48.5067 18.976C48.5067 16.9633 48.5067 14.9505 48.5067 12.8767Z" fill="#FEDD00"/>
<path d="M31.5067 19.8796C31.4319 20.4015 31.3571 20.9233 31.28 21.4609C31.0239 21.531 30.7655 21.601 30.5003 21.6733C29.7409 21.8292 29.7409 21.8292 29.4667 22.1386C29.376 22.9496 29.376 23.3585 29.8339 24.0452C30.3688 24.4722 30.3688 24.4722 31.11 24.3412C31.3163 24.2847 31.5203 24.2282 31.7333 24.1717C31.8829 23.7245 32.0325 23.2772 32.1867 22.8163C32.7103 22.8163 33.2339 22.8163 33.7733 22.8163C33.8867 24.0136 33.6305 24.6032 32.8667 25.5272C32.0756 26.1845 31.4001 26.3155 30.3688 26.2681C29.2831 26.1168 28.5872 25.6356 27.9072 24.8065C27.2975 23.8736 27.268 23.2388 27.4267 22.1386C28.4172 20.2388 29.4485 19.7192 31.5067 19.8796Z" fill="#FEDD00"/>
<path d="M60.0667 13.7803C60.9031 14.144 61.1433 14.3744 61.6533 15.1357C61.6216 15.9829 61.5604 16.5318 61.0595 17.2253C60.3795 17.7245 59.7199 17.9956 58.9333 18.2983C59.6065 18.522 60.2797 18.7456 60.9733 18.976C60.8985 19.4233 60.8237 19.8706 60.7467 20.3314C59.1237 20.1733 57.5688 19.8096 55.9867 19.4278C55.9935 18.6937 55.9935 18.6937 56.2133 17.8465C56.7301 17.4196 57.3059 17.1982 57.9269 16.9565C58.0879 16.8887 58.2488 16.8209 58.4165 16.7509C58.8132 16.5838 59.2121 16.4234 59.6133 16.2652C59.6133 15.967 59.6133 15.6689 59.6133 15.3616C59.4456 15.3616 59.2756 15.3616 59.1033 15.3616C58.5933 15.3616 58.0833 15.3616 57.5733 15.3616C57.4237 14.9889 57.2741 14.6162 57.12 14.2321C58.0833 13.5928 58.9356 13.6606 60.0667 13.7803Z" fill="#FEDD00"/>
<path d="M73.2133 20.1055C74.4691 20.8759 75.5276 21.8246 76.6133 22.8163C76.1872 23.6928 76.1872 23.6928 75.9333 23.9458C75.4052 24.0294 74.8771 24.104 74.3467 24.1717C74.4124 24.4089 74.4781 24.6461 74.5461 24.8924C74.5733 25.7531 74.5733 25.7531 73.9931 26.4172C73.4695 26.7809 73.1771 26.8893 72.5333 27.0091C71.6539 26.8442 71.1779 26.555 70.4933 25.979C69.9607 25.1318 69.8133 24.7297 69.8133 23.7199C70.4367 23.6341 70.4367 23.6341 71.1733 23.7199C71.6697 24.3976 71.6697 24.3976 72.08 25.0754C72.3044 25.0754 72.5288 25.0754 72.76 25.0754C72.6308 24.427 72.5651 24.2034 72.08 23.7199C72.1661 23.1281 72.1661 23.1281 72.3067 22.5904C72.7555 22.5159 73.2043 22.4413 73.6667 22.3645C73.2927 21.9918 72.9187 21.6191 72.5333 21.235C72.9595 20.3585 72.9595 20.3585 73.2133 20.1055Z" fill="#FEDD00"/>
<path d="M46.92 13.1026C46.7749 14.0672 46.6276 15.0318 46.4803 15.9964C46.4395 16.272 46.3987 16.5453 46.3556 16.8277C46.3148 17.092 46.2763 17.3541 46.2332 17.6252C46.1969 17.8669 46.1607 18.1108 46.1221 18.3593C46.0133 18.976 46.0133 18.976 45.7867 19.6537C45.2631 19.7283 44.7395 19.8028 44.2 19.8796C43.6379 19.0664 43.0757 18.2509 42.5136 17.4377C42.3549 17.205 42.194 16.9746 42.0285 16.7351C41.8767 16.5137 41.7225 16.2923 41.5661 16.0642C41.4256 15.8586 41.2828 15.653 41.1377 15.443C40.8 14.9098 40.8 14.9098 40.5733 14.2321C41.5843 14.1192 41.5843 14.1192 42.6133 14.0062C43.2117 14.9753 43.8101 15.9445 44.4267 16.9429C44.7599 16.281 44.7939 15.6124 44.8936 14.8827C44.9344 14.5913 44.9752 14.3022 45.016 14.004C45.0455 13.7803 45.0749 13.5589 45.1067 13.3285C45.7617 13.141 46.2151 13.1026 46.92 13.1026Z" fill="#FEDD00"/>
<path d="M59.6133 80.8728C59.6881 81.3201 59.7629 81.7673 59.84 82.2282C59.3164 82.3027 58.7928 82.3773 58.2533 82.4541C58.3032 82.6822 58.3508 82.9127 58.4029 83.1476C58.4664 83.4526 58.5299 83.7575 58.5933 84.0625C58.6409 84.2884 58.6409 84.2884 58.6908 84.5188C58.8789 85.4269 58.9673 86.2718 58.9333 87.198C58.4052 87.207 57.8748 87.207 57.3467 87.198C56.6871 86.5406 56.6893 84.869 56.6372 83.9699C56.6372 83.6152 56.6508 83.2606 56.6667 82.9059C55.658 83.0188 55.658 83.0188 54.6267 83.1318C54.5519 82.61 54.4771 82.0881 54.4 81.5505C54.9712 81.4353 55.5424 81.3223 56.1136 81.2116C56.2745 81.18 56.4332 81.1461 56.5987 81.1145C57.6232 80.9157 58.5684 80.8389 59.6133 80.8728Z" fill="#FEDD00"/>
<path d="M36.9467 16.2652C37.0215 16.5634 37.0963 16.8616 37.1733 17.1688C36.3233 17.8465 36.3233 17.8465 35.8133 17.8465C36.006 18.226 36.006 18.226 36.2009 18.6123C36.3709 18.9467 36.5387 19.2787 36.7064 19.6108C36.8333 19.8616 36.8333 19.8616 36.9625 20.1168C37.0827 20.3585 37.0827 20.3585 37.2073 20.6048C37.2821 20.7516 37.3569 20.9007 37.434 21.0521C37.6267 21.4609 37.6267 21.4609 37.8533 22.1386C37.3297 22.491 37.3297 22.491 36.72 22.8163C35.7385 22.491 35.5323 21.7523 35.0903 20.8826C35.0064 20.7222 34.9248 20.5619 34.8387 20.3947C34.6324 19.9994 34.4284 19.5995 34.2267 19.2019C33.6283 19.351 33.0299 19.5001 32.4133 19.6537C32.2637 19.2064 32.1141 18.7592 31.96 18.2983C32.5539 17.964 33.15 17.6297 33.7461 17.2953C33.9139 17.2005 34.0839 17.1056 34.2584 17.0084C34.5009 16.8706 34.5009 16.8706 34.748 16.7328C34.8976 16.647 35.0472 16.5634 35.2013 16.4776C35.9153 16.0845 36.1601 16.0303 36.9467 16.2652Z" fill="#FEDD00"/>
<path d="M27.88 71.6109C28.2517 71.9271 28.6235 72.2457 28.9952 72.5619C29.3148 72.8353 29.6367 73.1086 29.9608 73.3774C30.1195 73.5107 30.2804 73.6462 30.4436 73.784C30.5932 73.9083 30.7405 74.0325 30.8947 74.1613C31.2981 74.5656 31.5089 74.9316 31.7333 75.4512C31.4341 75.7494 31.1349 76.0476 30.8267 76.3548C30.6952 76.2012 30.5637 76.0476 30.43 75.8894C30.2623 75.7449 30.0923 75.6003 29.92 75.4512C28.8728 75.5619 28.3651 76.296 27.71 77.046C27.5377 77.2381 27.5377 77.2381 27.3609 77.4346C27.0799 77.7508 26.7988 78.0694 26.52 78.3879C25.4139 77.796 25.4139 77.796 25.16 77.0325C26.1415 76.0543 27.1252 75.0739 28.1067 74.0958C27.7327 73.5739 27.3587 73.0521 26.9733 72.5145C27.2725 72.2163 27.5717 71.9181 27.88 71.6109Z" fill="#FEDD00"/>
<path d="M83.8667 66.4152C84.9728 66.8105 84.9728 66.8105 85.2267 67.3188C85.0453 67.7231 85.0453 67.7231 84.7529 68.202C84.6509 68.3737 84.5467 68.5477 84.4401 68.7239C84.3313 68.9023 84.2203 69.083 84.1069 69.266C83.9981 69.449 83.8893 69.6297 83.776 69.815C83.5063 70.2645 83.2343 70.7118 82.96 71.1591C81.1399 70.2961 79.4489 69.2931 77.7467 68.2224C77.8169 67.6847 77.8169 67.6847 77.9733 67.0929C78.1977 66.9438 78.4221 66.7947 78.6533 66.6411C79.8501 67.312 81.0469 67.9829 82.28 68.6742C82.8376 67.9332 83.3567 67.1877 83.8667 66.4152Z" fill="#FEDD00"/>
<path d="M61.88 79.9692C62.1905 80.857 62.4965 81.747 62.8003 82.6371C62.8887 82.8901 62.9771 83.1431 63.0677 83.4051C63.1516 83.6469 63.2332 83.8886 63.3193 84.1393C63.4349 84.4736 63.4349 84.4736 63.5528 84.817C63.6933 85.3908 63.6933 85.3908 63.4667 86.0685C62.9431 86.1431 62.4195 86.2176 61.88 86.2944C61.6148 85.4428 61.3496 84.5911 61.0867 83.7395C61.0119 83.4978 60.9348 83.2538 60.8577 83.0053C60.7852 82.7726 60.7149 82.5399 60.6401 82.3005C60.5744 82.0881 60.5064 81.8735 60.4384 81.6522C60.2933 81.0987 60.2933 81.0987 60.2933 80.421C61.37 79.9692 61.37 79.9692 61.88 79.9692Z" fill="#FEDD00"/>
<path d="M23.12 64.1562C23.4509 64.7548 23.5733 65.0349 23.5733 65.7375C22.8004 66.1599 22.0252 66.5778 21.25 66.9935C20.9213 67.1742 20.9213 67.1742 20.5859 67.3594C20.3728 67.4724 20.162 67.5853 19.9421 67.7005C19.652 67.8587 19.652 67.8587 19.3528 68.0191C18.8133 68.2224 18.8133 68.2224 18.3169 68.2133C17.9067 67.9965 17.9067 67.9965 17.6233 67.4182C17.5667 67.2352 17.51 67.0545 17.4533 66.867C18.2693 66.4129 19.0853 65.9611 19.9036 65.5116C20.1371 65.3828 20.3683 65.254 20.6085 65.1207C20.9417 64.9355 20.9417 64.9355 21.2817 64.748C21.488 64.6351 21.6943 64.5221 21.9051 64.4046C22.44 64.1562 22.44 64.1562 23.12 64.1562Z" fill="#FEDD00"/>
<path d="M39.2144 14.9453C39.6677 15.135 39.6677 15.135 39.9397 15.5823C40.0123 15.7743 40.0848 15.9664 40.1596 16.1629C40.2389 16.373 40.3205 16.5831 40.4021 16.7977C40.4815 17.0191 40.5608 17.2382 40.6447 17.4663C40.7716 17.7916 40.7716 17.7916 40.8985 18.126C41.5627 19.9038 41.5627 19.9038 41.2544 20.7826C40.8056 20.8571 40.3568 20.9317 39.8944 21.0085C39.5521 20.1523 39.2121 19.2961 38.8744 18.44C38.7769 18.196 38.6795 17.952 38.5775 17.699C38.4868 17.4663 38.3939 17.2337 38.2987 16.9942C38.1717 16.6712 38.1717 16.6712 38.0403 16.3414C37.8544 15.8127 37.8544 15.8127 37.8544 15.3609C38.3395 15.0673 38.6387 14.9001 39.2144 14.9453Z" fill="#FEDD00"/>
<path d="M67.5467 79.7433C67.9864 79.9827 67.9864 79.9827 68.2267 80.421C68.34 81.3178 68.3672 81.8012 67.8436 82.5535C67.32 82.9059 67.32 82.9059 66.7533 83.0188C65.9804 82.8652 65.7265 82.6461 65.28 82.0023C65.1825 81.2207 65.1349 80.6853 65.5203 79.9827C66.2139 79.6055 66.7737 79.6597 67.5467 79.7433Z" fill="#DA291C"/>
<path d="M38.9867 25.3013C47.0651 25.3013 55.1435 25.3013 63.4667 25.3013C63.4667 25.3758 63.4667 25.4503 63.4667 25.5272C55.4631 25.5272 47.4595 25.5272 39.2133 25.5272C39.3629 25.6762 39.5125 25.8253 39.6667 25.979C39.6939 26.7967 39.6939 26.7967 39.6667 27.5603C40.0407 27.5603 40.4147 27.5603 40.8 27.5603C40.8 27.7839 40.8 28.0075 40.8 28.238C40.2016 28.238 39.6032 28.238 38.9867 28.238C38.9867 27.2688 38.9867 26.2997 38.9867 25.3013Z" fill="#474888"/>
<path d="M65.3366 17.2253C65.6449 17.3089 65.6449 17.3089 65.96 17.3947C66.0257 18.5062 66.0234 19.2381 65.28 20.1055C64.6997 20.3179 64.6997 20.3179 64.1466 20.3314C63.6933 19.8796 63.6933 19.8796 63.6094 19.0054C63.6276 18.3187 63.6797 18.0928 64.0628 17.4941C64.6 17.1688 64.6 17.1688 65.3366 17.2253Z" fill="#DA291C"/>
<path d="M77.9308 26.6849C78.4272 26.8837 78.4272 26.8837 78.6539 27.1096C78.5746 28.5215 78.5746 28.5215 78.0442 29.1269C77.38 29.4318 76.8836 29.4318 76.1606 29.3686C75.9339 29.1427 75.9339 29.1427 75.8342 28.5192C75.9339 27.7873 75.9339 27.7873 76.5436 27.1231C77.2939 26.6578 77.2939 26.6578 77.9308 26.6849Z" fill="#DA291C"/>
<path d="M68.2267 20.1055C69.1583 20.4331 69.9108 20.8984 70.72 21.4609C70.4956 21.9082 70.2712 22.3555 70.04 22.8163C69.2172 22.3691 68.3944 21.9218 67.5467 21.4609C68 20.3314 68 20.3314 68.2267 20.1055Z" fill="#FEDD00"/>
<path d="M48.0533 37.274C48.79 37.6422 48.8943 38.4306 49.1549 39.1693C49.2139 39.3387 49.2751 39.5059 49.3363 39.6798C49.4632 40.0345 49.5901 40.3914 49.7148 40.7483C49.9075 41.295 50.1047 41.8372 50.3019 42.3816C50.4243 42.7272 50.5467 43.0728 50.6691 43.4207C50.728 43.5834 50.7892 43.746 50.8504 43.9132C51.3355 45.3138 51.3355 45.3138 51 46.0841C50.1863 44.0329 49.3839 41.9772 48.6336 39.8989C48.5747 39.7408 48.518 39.5804 48.4568 39.4155C48.1825 38.6475 48.0533 38.1008 48.0533 37.274Z" fill="#FFF4C1"/>
<path d="M38.3067 80.6469C38.9708 80.7892 39.5216 81.0061 40.12 81.3246C40.0452 81.6973 39.9704 82.0701 39.8933 82.4541C38.4993 82.3208 38.4993 82.3208 38.08 82.2282C38.0052 82.0791 37.9304 81.93 37.8533 81.7764C38.0664 81.1845 38.0664 81.1845 38.3067 80.6469Z" fill="#DA291C"/>
<path d="M51.9067 83.8095C52.5867 84.6273 52.5867 84.6273 52.5867 85.3908C52.2127 85.3908 51.8387 85.3908 51.4533 85.3908C51.6528 84.0625 51.6528 84.0625 51.9067 83.8095Z" fill="#DA291C"/>
<path d="M76.84 72.0627C77.5132 72.1756 77.5132 72.1756 78.2 72.2886C78.2 72.5868 78.2 72.8849 78.2 73.1922C78.0504 73.3413 77.9008 73.4904 77.7467 73.644C77.2979 72.8624 77.2979 72.8624 76.84 72.0627Z" fill="#DA291C"/>
<path d="M39.44 25.979C39.5148 25.979 39.5896 25.979 39.6667 25.979C39.6667 26.5008 39.6667 27.0226 39.6667 27.5603C40.0407 27.5603 40.4147 27.5603 40.8 27.5603C40.8 27.7839 40.8 28.0075 40.8 28.238C40.2764 28.1634 39.7528 28.0889 39.2133 28.0121C39.2881 27.3411 39.3629 26.6702 39.44 25.979Z" fill="#4A4778"/>
<path d="M24.9333 27.3344C25.4569 27.4089 25.9805 27.4835 26.52 27.5603C26.3704 27.8584 26.2208 28.1566 26.0667 28.4639C25.8423 28.4639 25.6179 28.4639 25.3867 28.4639C25.2371 28.0911 25.0875 27.7184 24.9333 27.3344Z" fill="#DA291C"/>
</svg>
